<svg width="118" height="33" viewBox="0 0 118 33" fill="none" xmlns="http://www.w3.org/2000/svg">
<path d="M10.976 29.448C14.0866 29.448 16.8328 28.2783 18.7902 26.0572C20.7387 23.8463 21.832 20.6798 21.832 16.8H19.832C19.832 20.3122 18.8453 22.9697 17.2898 24.7348C15.7432 26.4897 13.5614 27.448 10.976 27.448V29.448ZM21.832 16.8C21.832 12.9202 20.7387 9.75373 18.7902 7.54283C16.8328 5.32171 14.0866 4.152 10.976 4.152V6.152C13.5614 6.152 15.7432 7.11029 17.2898 8.86517C18.8453 10.6303 19.832 13.2878 19.832 16.8H21.832ZM10.976 4.152C7.85096 4.152 5.09671 5.32054 3.13451 7.54198C1.18134 9.7532 0.0880001 12.9202 0.0880001 16.8H2.088C2.088 13.2878 3.07466 10.6308 4.63349 8.86602C6.18329 7.11145 8.37304 6.152 10.976 6.152V4.152ZM0.0880001 16.8C0.0880001 20.6798 1.18134 23.8468 3.13451 26.058C5.09671 28.2795 7.85096 29.448 10.976 29.448V27.448C8.37304 27.448 6.18329 26.4885 4.63349 24.734C3.07466 22.9692 2.088 20.3122 2.088 16.8H0.0880001ZM10.976 22.264C10.298 22.264 9.74375 22.0035 9.30284 21.2771C8.81771 20.4779 8.456 19.0778 8.456 16.8H6.456C6.456 19.2262 6.83029 21.0581 7.59316 22.3149C8.40025 23.6445 9.606 24.264 10.976 24.264V22.264ZM8.456 16.8C8.456 14.5222 8.81771 13.1221 9.30284 12.3229C9.74375 11.5965 10.298 11.336 10.976 11.336V9.336C9.606 9.336 8.40025 9.95547 7.59316 11.2851C6.83029 12.5419 6.456 14.3738 6.456 16.8H8.456ZM10.976 11.336C11.6322 11.336 12.18 11.5914 12.6197 12.3205C13.1025 13.1209 13.464 14.5226 13.464 16.8H15.464C15.464 14.3734 15.0895 12.5431 14.3323 11.2875C13.532 9.9606 12.3358 9.336 10.976 9.336V11.336ZM13.464 16.8C13.464 19.0774 13.1025 20.4791 12.6197 21.2795C12.18 22.0086 11.6322 22.264 10.976 22.264V24.264C12.3358 24.264 13.532 23.6394 14.3323 22.3125C15.0895 21.0569 15.464 19.2266 15.464 16.8H13.464ZM31.4163 22.976L30.7375 22.2416L28.861 23.976H31.4163V22.976ZM35.6403 19.072L34.9632 18.3361L34.9615 18.3376L35.6403 19.072ZM21.4643 9.824L20.6076 9.30807L20.0742 10.1937L20.9771 10.6973L21.4643 9.824ZM26.1683 12.448L25.6811 13.3213L26.5137 13.7857L27.0173 12.9763L26.1683 12.448ZM31.0003 16.192L30.3198 15.4592L30.3172 15.4616L31.0003 16.192ZM22.6162 24.032L21.9332 23.3016L21.6162 23.598V24.032H22.6162ZM22.6162 28H21.6162V29H22.6162V28ZM40.0563 28V29H41.0563V28H40.0563ZM40.0563 22.976H41.0563V21.976H40.0563V22.976ZM32.095 23.7104L36.319 19.8064L34.9615 18.3376L30.7375 22.2416L32.095 23.7104ZM36.3173 19.8079C37.9715 18.2861 39.0182 16.9564 39.6437 15.6691C40.2785 14.3625 40.4482 13.164 40.4482 11.968H38.4482C38.4482 12.948 38.314 13.8295 37.8448 14.7949C37.3663 15.7796 36.509 16.9139 34.9632 18.3361L36.3173 19.8079ZM40.4482 11.968C40.4482 9.5726 39.4122 7.5786 37.6398 6.20876C35.8903 4.85672 33.4814 4.152 30.7443 4.152V6.152C33.1591 6.152 35.1022 6.77527 36.4167 7.79124C37.7083 8.7894 38.4482 10.2034 38.4482 11.968H40.4482ZM30.7443 4.152C26.0269 4.152 22.5086 6.15169 20.6076 9.30807L22.3209 10.3399C23.8119 7.86431 26.6296 6.152 30.7443 6.152V4.152ZM20.9771 10.6973L25.6811 13.3213L26.6554 11.5747L21.9514 8.95068L20.9771 10.6973ZM27.0173 12.9763C27.7165 11.8526 28.8538 11.272 30.1683 11.272V9.272C28.2187 9.272 26.412 10.1633 25.3192 11.9197L27.0173 12.9763ZM30.1683 11.272C30.9963 11.272 31.4555 11.4604 31.6919 11.6554C31.898 11.8254 32.0482 12.0929 32.0482 12.576H34.0482C34.0482 11.6191 33.7185 10.7346 32.9646 10.1126C32.241 9.51561 31.2602 9.272 30.1683 9.272V11.272ZM32.0482 12.576C32.0482 12.9253 32.0043 13.253 31.8006 13.6633C31.5848 14.0978 31.1639 14.6754 30.3198 15.4592L31.6807 16.9248C32.6286 16.0446 33.2317 15.2782 33.5919 14.5527C33.9642 13.8029 34.0482 13.1547 34.0482 12.576H32.0482ZM30.3172 15.4616L21.9332 23.3016L23.2993 24.7624L31.6833 16.9224L30.3172 15.4616ZM21.6162 24.032V28H23.6162V24.032H21.6162ZM22.6162 29H40.0563V27H22.6162V29ZM41.0563 28V22.976H39.0563V28H41.0563ZM40.0563 21.976H31.4163V23.976H40.0563V21.976ZM48.941 31.2L47.9972 30.8694L47.5311 32.2H48.941V31.2ZM54.349 31.2V32.2H55.0583L55.2928 31.5306L54.349 31.2ZM64.909 1.056L65.8528 1.38662L66.3189 0.0559978H64.909V1.056ZM59.501 1.056V0.0559978H58.7917L58.5572 0.725379L59.501 1.056ZM48.941 32.2H54.349V30.2H48.941V32.2ZM55.2928 31.5306L65.8528 1.38662L63.9652 0.725379L53.4052 30.8694L55.2928 31.5306ZM64.909 0.0559978H59.501V2.056H64.909V0.0559978ZM58.5572 0.725379L47.9972 30.8694L49.8848 31.5306L60.4448 1.38662L58.5572 0.725379ZM83.6947 29.448C86.8054 29.448 89.5515 28.2783 91.509 26.0572C93.4574 23.8463 94.5508 20.6798 94.5508 16.8H92.5508C92.5508 20.3122 91.5641 22.9697 90.0085 24.7348C88.462 26.4897 86.2801 27.448 83.6947 27.448V29.448ZM94.5508 16.8C94.5508 12.9202 93.4574 9.75373 91.509 7.54283C89.5515 5.32171 86.8054 4.152 83.6947 4.152V6.152C86.2801 6.152 88.462 7.11029 90.0085 8.86517C91.5641 10.6303 92.5508 13.2878 92.5508 16.8H94.5508ZM83.6947 4.152C80.5697 4.152 77.8155 5.32054 75.8533 7.54198C73.9001 9.7532 72.8067 12.9202 72.8067 16.8H74.8067C74.8067 13.2878 75.7934 10.6308 77.3522 8.86602C78.902 7.11145 81.0918 6.152 83.6947 6.152V4.152ZM72.8067 16.8C72.8067 20.6798 73.9001 23.8468 75.8533 26.058C77.8155 28.2795 80.5697 29.448 83.6947 29.448V27.448C81.0918 27.448 78.902 26.4885 77.3522 24.734C75.7934 22.9692 74.8067 20.3122 74.8067 16.8H72.8067ZM83.6947 22.264C83.0167 22.264 82.4625 22.0035 82.0216 21.2771C81.5365 20.4779 81.1748 19.0778 81.1748 16.8H79.1748C79.1748 19.2262 79.549 21.0581 80.3119 22.3149C81.119 23.6445 82.3248 24.264 83.6947 24.264V22.264ZM81.1748 16.8C81.1748 14.5222 81.5365 13.1221 82.0216 12.3229C82.4625 11.5965 83.0167 11.336 83.6947 11.336V9.336C82.3248 9.336 81.119 9.95547 80.3119 11.2851C79.549 12.5419 79.1748 14.3738 79.1748 16.8H81.1748ZM83.6947 11.336C84.351 11.336 84.8987 11.5914 85.3384 12.3205C85.8212 13.1209 86.1828 14.5226 86.1828 16.8H88.1828C88.1828 14.3734 87.8083 12.5431 87.0511 11.2875C86.2508 9.9606 85.0545 9.336 83.6947 9.336V11.336ZM86.1828 16.8C86.1828 19.0774 85.8212 20.4791 85.3384 21.2795C84.8987 22.0086 84.351 22.264 83.6947 22.264V24.264C85.0545 24.264 86.2508 23.6394 87.0511 22.3125C87.8083 21.0569 88.1828 19.2266 88.1828 16.8H86.1828ZM116.833 18.688H117.833V17.688H116.833V18.688ZM113.505 18.688H112.505V19.688H113.505V18.688ZM113.505 14.88H114.505V13.88H113.505V14.88ZM107.521 14.88V13.88H106.521V14.88H107.521ZM107.521 18.688V19.688H108.521V18.688H107.521ZM102.977 18.688L102.157 18.1163L101.061 19.688H102.977V18.688ZM112.097 5.6L112.917 6.17171L114.013 4.6H112.097V5.6ZM105.537 5.6V4.6H105.024L104.725 5.01648L105.537 5.6ZM95.489 19.584L94.6769 19.0005L94.489 19.262V19.584H95.489ZM95.489 23.712H94.489V24.712H95.489V23.712ZM107.329 23.712H108.329V22.712H107.329V23.712ZM107.329 28H106.329V29H107.329V28ZM113.505 28V29H114.505V28H113.505ZM113.505 23.712V22.712H112.505V23.712H113.505ZM116.833 23.712V24.712H117.833V23.712H116.833ZM116.833 17.688H113.505V19.688H116.833V17.688ZM114.505 18.688V14.88H112.505V18.688H114.505ZM113.505 13.88H107.521V15.88H113.505V13.88ZM106.521 14.88V18.688H108.521V14.88H106.521ZM107.521 17.688H102.977V19.688H107.521V17.688ZM103.797 19.2597L112.917 6.17171L111.277 5.02829L102.157 18.1163L103.797 19.2597ZM112.097 4.6H105.537V6.6H112.097V4.6ZM104.725 5.01648L94.6769 19.0005L96.3011 20.1675L106.349 6.18352L104.725 5.01648ZM94.489 19.584V23.712H96.489V19.584H94.489ZM95.489 24.712H107.329V22.712H95.489V24.712ZM106.329 23.712V28H108.329V23.712H106.329ZM107.329 29H113.505V27H107.329V29ZM114.505 28V23.712H112.505V28H114.505ZM113.505 24.712H116.833V22.712H113.505V24.712ZM117.833 23.712V18.688H115.833V23.712H117.833Z" fill="#262E4D"/>
</svg>
