<svg width="175" height="75" viewBox="0 0 175 75" fill="none" xmlns="http://www.w3.org/2000/svg">
<path d="M20.008 26H26.6L16.68 3.6H10.44L0.552 26H7.016L8.776 21.648H18.248L20.008 26ZM10.632 16.976L13.512 9.808L16.392 16.976H10.632ZM31.1483 6.736C33.3883 6.736 34.8603 5.328 34.8603 3.408C34.8603 1.584 33.3883 0.271999 31.1483 0.271999C28.9083 0.271999 27.4363 1.68 27.4363 3.504C27.4363 5.328 28.9083 6.736 31.1483 6.736ZM28.1083 26H34.1883V8.656H28.1083V26ZM43.9315 10.736V8.656H38.1395V26H44.2195V18.032C44.2195 14.992 45.9155 13.744 48.3795 13.744C48.8275 13.744 49.2115 13.776 49.7555 13.84V8.368C47.1955 8.368 45.1795 9.168 43.9315 10.736ZM79.4955 8.496V3.6H61.9275V26H68.2635V18.32H78.1515V13.424H68.2635V8.496H79.4955ZM90.4998 26.288C96.2278 26.288 100.292 22.544 100.292 17.296C100.292 12.08 96.2278 8.368 90.4998 8.368C84.8358 8.368 80.7078 12.08 80.7078 17.296C80.7078 22.544 84.8358 26.288 90.4998 26.288ZM90.4998 21.456C88.4518 21.456 86.8518 19.952 86.8518 17.296C86.8518 14.672 88.4518 13.2 90.4998 13.2C92.5798 13.2 94.1478 14.672 94.1478 17.296C94.1478 19.952 92.5798 21.456 90.4998 21.456ZM108.9 10.736V8.656H103.108V26H109.188V18.032C109.188 14.992 110.884 13.744 113.348 13.744C113.796 13.744 114.18 13.776 114.724 13.84V8.368C112.164 8.368 110.148 9.168 108.9 10.736ZM125.941 26.288C129.877 26.288 132.885 24.528 134.069 21.52L129.365 19.12C128.533 20.752 127.317 21.456 125.909 21.456C123.797 21.456 122.133 19.984 122.133 17.296C122.133 14.672 123.797 13.2 125.909 13.2C127.317 13.2 128.533 13.904 129.365 15.536L134.069 13.136C132.885 10.128 129.877 8.368 125.941 8.368C120.117 8.368 115.989 12.08 115.989 17.296C115.989 22.576 120.117 26.288 125.941 26.288ZM153.899 17.36C153.899 11.632 149.739 8.368 144.619 8.368C139.147 8.368 135.083 12.08 135.083 17.296C135.083 22.48 139.083 26.288 145.259 26.288C148.555 26.288 150.987 25.328 152.651 23.472L149.451 20.144C148.267 21.168 147.147 21.648 145.451 21.648C143.211 21.648 141.707 20.624 141.195 18.864H153.803C153.835 18.384 153.899 17.808 153.899 17.36ZM144.651 12.688C146.539 12.688 147.883 13.84 148.203 15.664H141.099C141.451 13.84 142.763 12.688 144.651 12.688ZM164.255 3.6V8.496H168.415V26H174.751V3.6H164.255Z" fill="url(#paint0_linear)"/>
<path d="M17.096 74H23.88L19.048 66.96C21.832 65.616 23.432 63.184 23.432 59.888C23.432 54.768 19.592 51.6 13.48 51.6H3.24V74H9.576V68.048H13.032L17.096 74ZM17.032 59.888C17.032 61.936 15.72 63.152 13.096 63.152H9.576V56.592H13.096C15.72 56.592 17.032 57.808 17.032 59.888ZM44.3675 65.36C44.3675 59.632 40.2075 56.368 35.0875 56.368C29.6155 56.368 25.5515 60.08 25.5515 65.296C25.5515 70.48 29.5515 74.288 35.7275 74.288C39.0235 74.288 41.4555 73.328 43.1195 71.472L39.9195 68.144C38.7355 69.168 37.6155 69.648 35.9195 69.648C33.6795 69.648 32.1755 68.624 31.6635 66.864H44.2715C44.3035 66.384 44.3675 65.808 44.3675 65.36ZM35.1195 60.688C37.0075 60.688 38.3515 61.84 38.6715 63.664H31.5675C31.9195 61.84 33.2315 60.688 35.1195 60.688ZM54.094 56.368C51.374 56.368 48.43 57.072 46.446 58.384L48.494 62.512C49.678 61.584 51.534 61.008 53.198 61.008C55.598 61.008 56.782 62 56.878 63.76H53.422C48.046 63.76 45.71 65.744 45.71 68.944C45.71 71.952 48.014 74.288 52.174 74.288C54.702 74.288 56.43 73.424 57.294 71.76V74H62.958V64.368C62.958 58.864 59.726 56.368 54.094 56.368ZM53.87 70.448C52.43 70.448 51.598 69.712 51.598 68.688C51.598 67.632 52.302 66.928 54.254 66.928H56.878V68.432C56.398 69.808 55.214 70.448 53.87 70.448ZM75.9098 74.288C79.8458 74.288 82.8538 72.528 84.0378 69.52L79.3338 67.12C78.5018 68.752 77.2858 69.456 75.8778 69.456C73.7658 69.456 72.1018 67.984 72.1018 65.296C72.1018 62.672 73.7658 61.2 75.8778 61.2C77.2858 61.2 78.5018 61.904 79.3338 63.536L84.0378 61.136C82.8538 58.128 79.8458 56.368 75.9098 56.368C70.0858 56.368 65.9578 60.08 65.9578 65.296C65.9578 70.576 70.0858 74.288 75.9098 74.288ZM97.0723 69.04C96.5603 69.392 95.8883 69.584 95.2163 69.584C94.1283 69.584 93.3923 68.88 93.3923 67.6V61.84H97.3603V57.296H93.3923V52.784H87.3123V57.296H84.7843V61.84H87.3123V67.664C87.3123 72.112 89.9043 74.288 94.3523 74.288C95.9523 74.288 97.5203 73.968 98.5763 73.296L97.0723 69.04Z" fill="url(#paint1_linear)"/>
<defs>
<linearGradient id="paint0_linear" x1="89.5" y1="-9" x2="89.5" y2="87" gradientUnits="userSpaceOnUse">
<stop stop-color="#4B6CA7"/>
<stop offset="1" stop-color="#557AB4"/>
</linearGradient>
<linearGradient id="paint1_linear" x1="89.5" y1="-9" x2="89.5" y2="87" gradientUnits="userSpaceOnUse">
<stop stop-color="#262E4D"/>
<stop offset="1" stop-color="#262E4D"/>
</linearGradient>
</defs>
</svg>
