<svg width="131" height="75" viewBox="0 0 131 75" fill="none" xmlns="http://www.w3.org/2000/svg">
<path d="M20.008 26H26.6L16.68 3.6H10.44L0.552 26H7.016L8.776 21.648H18.248L20.008 26ZM10.632 16.976L13.512 9.808L16.392 16.976H10.632ZM31.1483 6.736C33.3883 6.736 34.8603 5.328 34.8603 3.408C34.8603 1.584 33.3883 0.271999 31.1483 0.271999C28.9083 0.271999 27.4363 1.68 27.4363 3.504C27.4363 5.328 28.9083 6.736 31.1483 6.736ZM28.1083 26H34.1883V8.656H28.1083V26ZM43.9315 10.736V8.656H38.1395V26H44.2195V18.032C44.2195 14.992 45.9155 13.744 48.3795 13.744C48.8275 13.744 49.2115 13.776 49.7555 13.84V8.368C47.1955 8.368 45.1795 9.168 43.9315 10.736ZM87.9755 26L87.9115 3.6H82.6955L75.0155 16.528L67.1435 3.6H61.9275V26H67.7835V14.448L73.5115 23.792H76.3275L82.0875 14.128L82.1515 26H87.9755ZM99.5628 8.368C96.8428 8.368 93.8988 9.072 91.9148 10.384L93.9628 14.512C95.1468 13.584 97.0028 13.008 98.6667 13.008C101.067 13.008 102.251 14 102.347 15.76H98.8908C93.5148 15.76 91.1788 17.744 91.1788 20.944C91.1788 23.952 93.4828 26.288 97.6428 26.288C100.171 26.288 101.899 25.424 102.763 23.76V26H108.427V16.368C108.427 10.864 105.195 8.368 99.5628 8.368ZM99.3388 22.448C97.8988 22.448 97.0668 21.712 97.0668 20.688C97.0668 19.632 97.7708 18.928 99.7228 18.928H102.347V20.432C101.867 21.808 100.683 22.448 99.3388 22.448ZM130.217 26L123.593 17.104L129.993 8.656H123.561L120.361 13.04L117.289 8.656H110.441L116.841 17.328L110.248 26H116.841L120.169 21.456L123.273 26H130.217Z" fill="#C65652"/>
<path d="M10.76 68.976L14.984 65.072C18.184 62.128 18.792 60.144 18.792 57.968C18.792 53.808 15.24 51.152 10.088 51.152C5.672 51.152 2.504 53.008 0.808 55.824L5.512 58.448C6.408 57.008 7.88 56.272 9.512 56.272C11.432 56.272 12.392 57.136 12.392 58.576C12.392 59.504 12.136 60.528 10.344 62.192L1.96 70.032V74H19.4V68.976H10.76ZM31.101 74.448C36.797 74.448 40.957 70.192 40.957 62.8C40.957 55.408 36.797 51.152 31.101 51.152C25.373 51.152 21.213 55.408 21.213 62.8C21.213 70.192 25.373 74.448 31.101 74.448ZM31.101 69.264C29.053 69.264 27.581 67.504 27.581 62.8C27.581 58.096 29.053 56.336 31.101 56.336C33.117 56.336 34.589 58.096 34.589 62.8C34.589 67.504 33.117 69.264 31.101 69.264ZM51.3113 51.152C46.4473 51.152 42.5433 54.128 42.5433 58.8C42.5433 63.088 46.0312 65.872 50.2552 65.872C52.3673 65.872 54.0313 65.296 55.2793 64.24C54.9273 67.632 52.8153 69.424 49.6473 69.424C48.2073 69.424 46.7993 69.168 45.5193 68.272L43.2153 72.816C44.8473 73.872 47.2793 74.448 49.7753 74.448C56.8793 74.448 61.7113 70 61.7113 62.192C61.7113 54.928 57.6153 51.152 51.3113 51.152ZM51.7593 61.328C49.9353 61.328 48.6873 60.24 48.6873 58.512C48.6873 56.752 49.9353 55.664 51.7273 55.664C53.6473 55.664 54.8633 56.816 54.8633 58.48C54.8633 60.176 53.5833 61.328 51.7593 61.328ZM73.7885 74.448C79.4845 74.448 83.6445 70.192 83.6445 62.8C83.6445 55.408 79.4845 51.152 73.7885 51.152C68.0605 51.152 63.9005 55.408 63.9005 62.8C63.9005 70.192 68.0605 74.448 73.7885 74.448ZM73.7885 69.264C71.7405 69.264 70.2685 67.504 70.2685 62.8C70.2685 58.096 71.7405 56.336 73.7885 56.336C75.8045 56.336 77.2765 58.096 77.2765 62.8C77.2765 67.504 75.8045 69.264 73.7885 69.264Z" fill="url(#paint0_linear)"/>
<defs>
<linearGradient id="paint0_linear" x1="70.5" y1="-9" x2="70.5" y2="87" gradientUnits="userSpaceOnUse">
<stop stop-color="#262E4D"/>
<stop offset="1" stop-color="#262E4D"/>
</linearGradient>
</defs>
</svg>
