<svg width="238" height="40" viewBox="0 0 238 40" fill="none" xmlns="http://www.w3.org/2000/svg">
<path d="M11.768 29.656H9.768V31.656H11.768V29.656ZM11.768 23.512V21.512H9.768V23.512H11.768ZM26.696 23.512V25.512H28.696V23.512H26.696ZM26.696 16.408H28.696V14.408H26.696V16.408ZM11.768 16.408H9.768V18.408H11.768V16.408ZM11.768 10.744V8.744H9.768V10.744H11.768ZM28.712 10.744V12.744H30.712V10.744H28.712ZM28.712 3.4H30.712V1.4H28.712V3.4ZM2.36 3.4V1.4H0.36V3.4H2.36ZM2.36 37H0.36V39H2.36V37ZM29.336 37V39H31.336V37H29.336ZM29.336 29.656H31.336V27.656H29.336V29.656ZM13.768 29.656V23.512H9.768V29.656H13.768ZM11.768 25.512H26.696V21.512H11.768V25.512ZM28.696 23.512V16.408H24.696V23.512H28.696ZM26.696 14.408H11.768V18.408H26.696V14.408ZM13.768 16.408V10.744H9.768V16.408H13.768ZM11.768 12.744H28.712V8.744H11.768V12.744ZM30.712 10.744V3.4H26.712V10.744H30.712ZM28.712 1.4H2.36V5.4H28.712V1.4ZM0.36 3.4V37H4.36V3.4H0.36ZM2.36 39H29.336V35H2.36V39ZM31.336 37V29.656H27.336V37H31.336ZM29.336 27.656H11.768V31.656H29.336V27.656ZM66.4888 37V39H70.3876L68.1132 35.8333L66.4888 37ZM54.0088 19.624L52.3871 18.4534L51.5442 19.621L52.3843 20.7907L54.0088 19.624ZM65.7207 3.4L67.3424 4.57063L69.6312 1.4H65.7207V3.4ZM55.4488 3.4V1.4H54.3929L53.7973 2.2718L55.4488 3.4ZM48.8247 13.096L47.181 14.2353L48.8366 16.6241L50.4762 14.2242L48.8247 13.096ZM42.1048 3.4L43.7486 2.26073L43.152 1.4H42.1048V3.4ZM31.4007 3.4V1.4H27.5431L29.7663 4.55262L31.4007 3.4ZM43.1128 20.008L44.7356 21.177L45.5687 20.0203L44.7472 18.8554L43.1128 20.008ZM30.8727 37L29.2499 35.831L26.9672 39H30.8727V37ZM41.7207 37V39H42.798L43.3907 38.1005L41.7207 37ZM48.5848 26.584L50.2477 25.4728L48.5732 22.9669L46.9148 25.4835L48.5848 26.584ZM55.5448 37L53.8818 38.1112L54.4757 39H55.5448V37ZM68.1132 35.8333L55.6332 18.4573L52.3843 20.7907L64.8643 38.1667L68.1132 35.8333ZM55.6304 20.7946L67.3424 4.57063L64.0991 2.22937L52.3871 18.4534L55.6304 20.7946ZM65.7207 1.4H55.4488V5.4H65.7207V1.4ZM53.7973 2.2718L47.1733 11.9678L50.4762 14.2242L57.1002 4.52819L53.7973 2.2718ZM50.4685 11.9567L43.7486 2.26073L40.461 4.53926L47.181 14.2353L50.4685 11.9567ZM42.1048 1.4H31.4007V5.4H42.1048V1.4ZM29.7663 4.55262L41.4783 21.1606L44.7472 18.8554L33.0352 2.24737L29.7663 4.55262ZM41.4899 18.839L29.2499 35.831L32.4956 38.169L44.7356 21.177L41.4899 18.839ZM30.8727 39H41.7207V35H30.8727V39ZM43.3907 38.1005L50.2547 27.6845L46.9148 25.4835L40.0508 35.8995L43.3907 38.1005ZM46.9218 27.6952L53.8818 38.1112L57.2077 35.8888L50.2477 25.4728L46.9218 27.6952ZM55.5448 39H66.4888V35H55.5448V39ZM68.6881 3.4V1.4H66.6881V3.4H68.6881ZM68.6881 37H66.6881V39H68.6881V37ZM78.1921 37V39H80.1921V37H78.1921ZM78.1921 28.216V26.216H76.1921V28.216H78.1921ZM78.1921 20.728H76.1921V22.728H78.1921V20.728ZM78.1921 10.888V8.888H76.1921V10.888H78.1921ZM84.0481 1.4H68.6881V5.4H84.0481V1.4ZM66.6881 3.4V37H70.6881V3.4H66.6881ZM68.6881 39H78.1921V35H68.6881V39ZM80.1921 37V28.216H76.1921V37H80.1921ZM78.1921 30.216H84.0481V26.216H78.1921V30.216ZM84.0481 30.216C88.9579 30.216 93.1864 28.9439 96.2259 26.4262C99.308 23.8733 100.976 20.1934 100.976 15.832H96.9761C96.9761 19.1026 95.7643 21.6147 93.6743 23.3458C91.5419 25.1121 88.3063 26.216 84.0481 26.216V30.216ZM100.976 15.832C100.976 11.4505 99.3109 7.75823 96.228 5.19751C93.1877 2.67209 88.9578 1.4 84.0481 1.4V5.4C88.3064 5.4 91.5406 6.50391 93.6722 8.27449C95.7613 10.0098 96.9761 12.5335 96.9761 15.832H100.976ZM83.4721 18.728H78.1921V22.728H83.4721V18.728ZM80.1921 20.728V10.888H76.1921V20.728H80.1921ZM78.1921 12.888H83.4721V8.888H78.1921V12.888ZM83.4721 12.888C85.1648 12.888 86.104 13.2834 86.5963 13.7066C87.0394 14.0876 87.3761 14.7103 87.3761 15.832H91.3761C91.3761 13.8337 90.7288 11.9844 89.204 10.6734C87.7282 9.40464 85.7154 8.888 83.4721 8.888V12.888ZM87.3761 15.832C87.3761 16.9205 87.0454 17.532 86.6016 17.9109C86.1074 18.3327 85.1644 18.728 83.4721 18.728V22.728C85.7158 22.728 87.7249 22.2113 89.1987 20.9531C90.7228 19.652 91.3761 17.8155 91.3761 15.832H87.3761ZM103.61 37H101.61V39H103.61V37ZM129.146 37V39H131.146V37H129.146ZM129.146 29.464H131.146V27.464H129.146V29.464ZM113.114 29.464H111.114V31.464H113.114V29.464ZM113.114 3.4H115.114V1.4H113.114V3.4ZM103.61 3.4V1.4H101.61V3.4H103.61ZM103.61 39H129.146V35H103.61V39ZM131.146 37V29.464H127.146V37H131.146ZM129.146 27.464H113.114V31.464H129.146V27.464ZM115.114 29.464V3.4H111.114V29.464H115.114ZM113.114 1.4H103.61V5.4H113.114V1.4ZM101.61 3.4V37H105.61V3.4H101.61ZM149.335 39.672C161.063 39.672 170.007 31.509 170.007 20.2H166.007C166.007 29.051 159.111 35.672 149.335 35.672V39.672ZM170.007 20.2C170.007 8.89098 161.063 0.727997 149.335 0.727997V4.728C159.111 4.728 166.007 11.349 166.007 20.2H170.007ZM149.335 0.727997C137.607 0.727997 128.663 8.89098 128.663 20.2H132.663C132.663 11.349 139.559 4.728 149.335 4.728V0.727997ZM128.663 20.2C128.663 31.509 137.607 39.672 149.335 39.672V35.672C139.559 35.672 132.663 29.051 132.663 20.2H128.663ZM149.335 27.8C145.399 27.8 142.263 24.9516 142.263 20.2H138.263C138.263 27.0644 143.095 31.8 149.335 31.8V27.8ZM142.263 20.2C142.263 15.4484 145.399 12.6 149.335 12.6V8.6C143.095 8.6 138.263 13.3356 138.263 20.2H142.263ZM149.335 12.6C153.271 12.6 156.407 15.4484 156.407 20.2H160.407C160.407 13.3356 155.575 8.6 149.335 8.6V12.6ZM156.407 20.2C156.407 24.9516 153.271 27.8 149.335 27.8V31.8C155.575 31.8 160.407 27.0644 160.407 20.2H156.407ZM193.769 37L192.117 38.1278L192.713 39H193.769V37ZM203.945 37V39H207.743L205.594 35.8682L203.945 37ZM196.697 26.44L195.827 24.6389L193.73 25.6515L195.048 27.5718L196.697 26.44ZM172.985 3.4V1.4H170.985V3.4H172.985ZM172.985 37H170.985V39H172.985V37ZM182.489 37V39H184.489V37H182.489ZM182.489 28.072V26.072H180.489V28.072H182.489ZM187.673 28.072L189.325 26.9442L188.729 26.072H187.673V28.072ZM182.489 20.728H180.489V22.728H182.489V20.728ZM182.489 10.888V8.888H180.489V10.888H182.489ZM193.769 39H203.945V35H193.769V39ZM205.594 35.8682L198.346 25.3082L195.048 27.5718L202.296 38.1318L205.594 35.8682ZM197.566 28.2411C202.43 25.8933 205.273 21.548 205.273 15.832H201.273C201.273 20.004 199.316 22.9547 195.827 24.6389L197.566 28.2411ZM205.273 15.832C205.273 11.4505 203.608 7.75823 200.525 5.19751C197.485 2.67209 193.255 1.4 188.345 1.4V5.4C192.603 5.4 195.837 6.50391 197.969 8.27449C200.058 10.0098 201.273 12.5335 201.273 15.832H205.273ZM188.345 1.4H172.985V5.4H188.345V1.4ZM170.985 3.4V37H174.985V3.4H170.985ZM172.985 39H182.489V35H172.985V39ZM184.489 37V28.072H180.489V37H184.489ZM182.489 30.072H187.673V26.072H182.489V30.072ZM186.021 29.1998L192.117 38.1278L195.421 35.8722L189.325 26.9442L186.021 29.1998ZM191.673 15.832C191.673 16.9205 191.342 17.532 190.898 17.9109C190.404 18.3327 189.461 18.728 187.769 18.728V22.728C190.013 22.728 192.022 22.2113 193.496 20.9531C195.02 19.652 195.673 17.8155 195.673 15.832H191.673ZM187.769 18.728H182.489V22.728H187.769V18.728ZM184.489 20.728V10.888H180.489V20.728H184.489ZM182.489 12.888H187.769V8.888H182.489V12.888ZM187.769 12.888C189.462 12.888 190.401 13.2834 190.893 13.7066C191.336 14.0876 191.673 14.7103 191.673 15.832H195.673C195.673 13.8337 195.026 11.9844 193.501 10.6734C192.025 9.40464 190.012 8.888 187.769 8.888V12.888ZM217.924 29.656H215.924V31.656H217.924V29.656ZM217.924 23.512V21.512H215.924V23.512H217.924ZM232.852 23.512V25.512H234.852V23.512H232.852ZM232.852 16.408H234.852V14.408H232.852V16.408ZM217.924 16.408H215.924V18.408H217.924V16.408ZM217.924 10.744V8.744H215.924V10.744H217.924ZM234.868 10.744V12.744H236.868V10.744H234.868ZM234.868 3.4H236.868V1.4H234.868V3.4ZM208.516 3.4V1.4H206.516V3.4H208.516ZM208.516 37H206.516V39H208.516V37ZM235.492 37V39H237.492V37H235.492ZM235.492 29.656H237.492V27.656H235.492V29.656ZM219.924 29.656V23.512H215.924V29.656H219.924ZM217.924 25.512H232.852V21.512H217.924V25.512ZM234.852 23.512V16.408H230.852V23.512H234.852ZM232.852 14.408H217.924V18.408H232.852V14.408ZM219.924 16.408V10.744H215.924V16.408H219.924ZM217.924 12.744H234.868V8.744H217.924V12.744ZM236.868 10.744V3.4H232.868V10.744H236.868ZM234.868 1.4H208.516V5.4H234.868V1.4ZM206.516 3.4V37H210.516V3.4H206.516ZM208.516 39H235.492V35H208.516V39ZM237.492 37V29.656H233.492V37H237.492ZM235.492 27.656H217.924V31.656H235.492V27.656Z" fill="white"/>
</svg>
