<svg width="333" height="197" viewBox="0 0 333 197" fill="none" xmlns="http://www.w3.org/2000/svg">
<path d="M0.16 53H19.6L21.4 43.28H10.888V0.799998H0.16V53ZM48.9648 46.52L49.9008 53H60.4128L50.9808 0.799998H39.8208L30.3888 53H40.9008L41.8368 46.52H48.9648ZM45.4368 19.736L47.8128 38.24H42.9888L45.4368 19.736ZM71.7544 0.799998L69.0184 10.52H76.0024V53H86.6584V10.52H93.6424L91.0504 0.799998H71.7544ZM103.744 53H123.616L125.416 43.28H114.472V31.904H123.112V22.904H114.472V10.52H125.848L124.048 0.799998H103.744V53ZM152.159 53C158.135 53 160.151 50.84 160.151 45.08V27.872C160.151 23.912 158.351 22.544 154.967 22.544H148.415C147.335 22.544 146.831 22.256 146.831 21.176V11.672C146.831 10.88 147.263 10.52 148.127 10.52H159.935L158.135 0.799998H143.735C138.839 0.799998 136.679 3.464 136.679 7.568V25.28C136.679 30.464 139.415 31.184 142.511 31.184H147.911C149.351 31.184 149.855 31.256 149.855 32.696V42.2C149.855 42.92 149.423 43.28 148.631 43.28H137.399L139.271 53H152.159ZM172.948 0.799998L170.212 10.52H177.196V53H187.852V10.52H194.836L192.244 0.799998H172.948Z" fill="#262E4D"/>
<path d="M32.992 110.888C34.288 110.888 34.864 111.608 34.864 112.904V176.552C34.864 178.136 34.576 178.712 32.848 178.712H23.056V110.888H32.992ZM55.6 105.272C55.6 97.64 51.424 92.6 43.216 92.6H2.32V197H39.328C51.424 197 55.6 192.392 55.6 180.872V105.272ZM78.595 197H118.339L121.939 177.56H100.051V154.808H117.331V136.808H100.051V112.04H122.803L119.203 92.6H78.595V197ZM178.736 184.04L180.608 197H201.632L182.768 92.6H160.448L141.584 197H162.608L164.48 184.04H178.736ZM171.68 130.472L176.432 167.48H166.784L171.68 130.472ZM221.723 197H260.603L264.203 177.56H243.179V92.6H221.723V197ZM316.021 197C327.973 197 332.005 192.68 332.005 181.16V146.744C332.005 138.824 328.405 136.088 321.637 136.088H308.533C306.373 136.088 305.365 135.512 305.365 133.352V114.344C305.365 112.76 306.229 112.04 307.957 112.04H331.573L327.973 92.6H299.173C289.381 92.6 285.061 97.928 285.061 106.136V141.56C285.061 151.928 290.533 153.368 296.725 153.368H307.525C310.405 153.368 311.413 153.512 311.413 156.392V175.4C311.413 176.84 310.549 177.56 308.965 177.56H286.501L290.245 197H316.021Z" fill="#F5405B"/>
</svg>
